<svg width="84" height="84" viewBox="0 0 84 84" fill="none" xmlns="http://www.w3.org/2000/svg">
<path fill-rule="evenodd" clip-rule="evenodd" d="M39.3069 7.63833C40.6851 7.12148 42.1865 7.05687 43.5955 7.44451L44.1931 7.63833L68.5472 16.7711C71.0823 17.7217 72.8186 20.0467 73.0388 22.7108L73.0625 23.2864V41.9442C73.0625 53.4558 66.75 64.0082 56.6791 69.4689L55.7533 69.9511L44.0838 75.7857C42.7778 76.4389 41.2665 76.5114 39.9148 76.0034L39.4162 75.7857L27.7466 69.9511C17.4504 64.8028 10.8351 54.4377 10.4548 42.988L10.4375 41.9442V23.2864C10.4375 20.5793 12.0048 18.1371 14.4219 16.9955L14.9526 16.7711L39.3069 7.63833ZM53.6936 30.0225L37.6961 46.02L31.5458 39.8696C30.1871 38.511 27.9843 38.511 26.6255 39.8696C25.2669 41.2282 25.2669 43.4312 26.6255 44.7898L34.99 53.1544C36.4846 54.6491 38.9079 54.6491 40.4025 53.1544L58.6139 34.9427C59.9728 33.584 59.9728 31.3812 58.6139 30.0225C57.2553 28.6638 55.0526 28.6638 53.6936 30.0225Z" fill="#00447F"/>
</svg>
